<svg width="40" height="40" viewBox="0 0 40 40" fill="none" xmlns="http://www.w3.org/2000/svg">
<g clip-path="url(#clip0_489_3009)">
<path fill-rule="evenodd" clip-rule="evenodd" d="M0 0H40V40H0V0Z" fill="url(#paint0_linear_489_3009)"/>
<path fill-rule="evenodd" clip-rule="evenodd" d="M19.521 10.879C20.671 10.879 21.607 11.815 21.607 12.965C21.607 14.115 20.671 15.051 19.521 15.051C18.968 15.0502 18.4379 14.8302 18.0469 14.4392C17.6558 14.0481 17.4358 13.518 17.435 12.965C17.435 11.815 18.371 10.879 19.521 10.879ZM19.521 16.051C20.3391 16.0499 21.1235 15.7245 21.702 15.146C22.2805 14.5675 22.6059 13.7831 22.607 12.965C22.6059 12.1469 22.2805 11.3625 21.702 10.784C21.1235 10.2055 20.3391 9.88006 19.521 9.879C18.7029 9.88006 17.9185 10.2055 17.34 10.784C16.7615 11.3625 16.4361 12.1469 16.435 12.965C16.4361 13.7831 16.7615 14.5675 17.34 15.146C17.9185 15.7245 18.7029 16.0499 19.521 16.051ZM13.556 12.21L14.101 12.24C14.2189 12.2463 14.3353 12.2109 14.4296 12.14C14.524 12.069 14.5904 11.967 14.617 11.852C14.7429 11.2968 14.9628 10.7672 15.267 10.286C15.3303 10.1861 15.356 10.067 15.3395 9.94995C15.323 9.83288 15.2654 9.7255 15.177 9.647L14.768 9.282L15.837 8.213L16.202 8.622C16.2807 8.71006 16.3881 8.76741 16.505 8.78389C16.622 8.80036 16.741 8.7749 16.841 8.712C17.3224 8.40801 17.8525 8.18883 18.408 8.064C18.5234 8.0377 18.6257 7.9713 18.6968 7.87663C18.7678 7.78196 18.803 7.66516 18.796 7.547L18.765 7H20.276L20.246 7.548C20.2393 7.66599 20.2745 7.78256 20.3456 7.87702C20.4166 7.97148 20.5188 8.03772 20.634 8.064C21.1886 8.18993 21.7177 8.40904 22.199 8.712C22.2987 8.77541 22.4178 8.80128 22.5349 8.78497C22.6519 8.76867 22.7594 8.71126 22.838 8.623L23.204 8.213L24.273 9.282L23.865 9.646C23.7763 9.72455 23.7186 9.83212 23.7021 9.94942C23.6856 10.0667 23.7114 10.1861 23.775 10.286C24.0798 10.7669 24.2996 11.2966 24.425 11.852C24.4478 11.969 24.5131 12.0735 24.6084 12.1452C24.7037 12.2168 24.8222 12.2506 24.941 12.24L25.486 12.21V13.721L24.941 13.69C24.823 13.6847 24.7069 13.7206 24.6126 13.7916C24.5182 13.8625 24.4515 13.9642 24.424 14.079C24.2996 14.6347 24.0804 15.1648 23.776 15.646C23.7126 15.746 23.6869 15.8653 23.7034 15.9825C23.7199 16.0998 23.7775 16.2073 23.866 16.286L24.273 16.649L23.204 17.717L22.843 17.313C22.7649 17.2241 22.6575 17.166 22.5403 17.1493C22.4231 17.1327 22.3038 17.1584 22.204 17.222C21.7217 17.5271 21.1907 17.7473 20.634 17.873C20.5188 17.8993 20.4166 17.9655 20.3456 18.06C20.2745 18.1544 20.2393 18.271 20.246 18.389L20.276 18.93H18.765L18.796 18.388C18.8031 18.2699 18.768 18.1532 18.6969 18.0586C18.6258 17.9641 18.5234 17.8979 18.408 17.872C17.8514 17.746 17.3204 17.5258 16.838 17.221C16.7379 17.1582 16.6188 17.1329 16.5019 17.1496C16.3849 17.1662 16.2776 17.2238 16.199 17.312L15.837 17.717L14.768 16.649L15.174 16.287C15.2625 16.2083 15.3201 16.1008 15.3366 15.9835C15.3531 15.8663 15.3274 15.747 15.264 15.647C14.9596 15.1649 14.7401 14.6343 14.615 14.078C14.588 13.9632 14.5216 13.8614 14.4273 13.7905C14.333 13.7196 14.2168 13.6841 14.099 13.69L13.556 13.721V12.21ZM13.084 14.749L13.749 14.711C13.864 15.093 14.016 15.461 14.204 15.812L13.708 16.255C13.6568 16.3 13.6153 16.3552 13.5863 16.4169C13.5573 16.4787 13.5413 16.5457 13.5393 16.6139C13.5374 16.6821 13.5495 16.75 13.5749 16.8133C13.6003 16.8767 13.6384 16.9341 13.687 16.982L15.504 18.798C15.5521 18.8462 15.6096 18.884 15.6729 18.9091C15.7362 18.9343 15.804 18.9462 15.872 18.9443C15.9401 18.9423 16.0071 18.9265 16.0688 18.8977C16.1305 18.8689 16.1857 18.8279 16.231 18.777L16.673 18.282C17.0241 18.4706 17.3933 18.6234 17.775 18.738L17.737 19.401C17.733 19.469 17.7429 19.5371 17.7663 19.6011C17.7897 19.6651 17.826 19.7236 17.873 19.773C17.966 19.873 18.098 19.93 18.236 19.93H20.805C20.8732 19.9303 20.9407 19.9165 21.0033 19.8897C21.066 19.8628 21.1224 19.8233 21.1692 19.7737C21.216 19.7241 21.2521 19.6655 21.2753 19.6013C21.2985 19.5372 21.3082 19.469 21.304 19.401L21.267 18.739C21.649 18.624 22.017 18.472 22.369 18.283L22.81 18.777C22.8551 18.8279 22.9101 18.869 22.9717 18.8979C23.0332 18.9268 23.1 18.9428 23.168 18.945C23.2367 18.9504 23.3056 18.9399 23.3696 18.9144C23.4336 18.8889 23.4908 18.8491 23.537 18.798L25.354 16.982C25.4026 16.9341 25.4407 16.8767 25.4661 16.8133C25.4915 16.75 25.5036 16.6821 25.5017 16.6139C25.4997 16.5457 25.4837 16.4787 25.4547 16.4169C25.4257 16.3552 25.3842 16.3 25.333 16.255L24.836 15.812C25.025 15.46 25.177 15.092 25.292 14.711L25.958 14.749C26.0259 14.7527 26.0939 14.7427 26.1578 14.7195C26.2217 14.6963 26.2803 14.6604 26.33 14.614C26.3792 14.567 26.4184 14.5105 26.4452 14.4479C26.472 14.3854 26.4859 14.3181 26.486 14.25V11.68C26.4859 11.6121 26.472 11.5449 26.4452 11.4825C26.4184 11.4201 26.3792 11.3638 26.33 11.317C26.2289 11.2242 26.0951 11.1753 25.958 11.181L25.292 11.219C25.1765 10.8384 25.0234 10.4703 24.835 10.12L25.333 9.675C25.3842 9.63005 25.4256 9.57502 25.4546 9.51335C25.4836 9.45168 25.4996 9.3847 25.5016 9.31658C25.5036 9.24846 25.4915 9.18066 25.4661 9.11742C25.4407 9.05418 25.4025 8.99685 25.354 8.949L23.537 7.132C23.4383 7.03611 23.3056 6.98325 23.168 6.985C23.1002 6.9873 23.0335 7.00327 22.972 7.03197C22.9104 7.06066 22.8554 7.10149 22.81 7.152L22.364 7.652C22.0144 7.46426 21.6469 7.31184 21.267 7.197L21.304 6.528C21.3081 6.46004 21.2982 6.39196 21.275 6.32797C21.2517 6.26397 21.2156 6.20542 21.1688 6.15594C21.1221 6.10646 21.0657 6.06709 21.0031 6.04027C20.9405 6.01345 20.8731 5.99974 20.805 6H18.236C18.168 5.99988 18.1006 6.01375 18.0382 6.04076C17.9757 6.06777 17.9195 6.10734 17.873 6.157C17.8261 6.20622 17.7899 6.26456 17.7665 6.32838C17.7431 6.3922 17.733 6.46015 17.737 6.528L17.775 7.196C17.3945 7.31083 17.0263 7.46325 16.676 7.651L16.231 7.152C16.1856 7.10149 16.1306 7.06066 16.069 7.03197C16.0075 7.00327 15.9408 6.9873 15.873 6.985C15.7364 6.98862 15.6056 7.04073 15.504 7.132L13.687 8.949C13.6385 8.99685 13.6003 9.05418 13.5749 9.11742C13.5495 9.18066 13.5374 9.24846 13.5394 9.31658C13.5414 9.3847 13.5574 9.45168 13.5864 9.51335C13.6154 9.57502 13.6568 9.63005 13.708 9.675L14.207 10.121C14.0188 10.471 13.8657 10.8388 13.75 11.219L13.084 11.181C12.947 11.1761 12.8135 11.2249 12.712 11.317C12.6628 11.3638 12.6236 11.4201 12.5968 11.4825C12.57 11.5449 12.5561 11.6121 12.556 11.68V14.25C12.556 14.388 12.613 14.519 12.712 14.614C12.7619 14.6601 12.8205 14.6958 12.8844 14.719C12.9483 14.7422 13.0161 14.7524 13.084 14.749ZM28.021 32.471H31.042V27.429H28.021V32.471ZM17.979 32.471H21.062V27.429H17.979V32.471ZM8 32.471H11.042V27.429H8V32.471ZM31.542 26.43H30.042V23.93C30.042 23.7974 29.9893 23.6702 29.8956 23.5765C29.8018 23.4827 29.6746 23.43 29.542 23.43H20.042V21.43H19.042V23.43H9.542C9.265 23.43 9.042 23.653 9.042 23.93V26.43H7.5C7.223 26.43 7 26.653 7 26.93V32.971C7 33.248 7.223 33.471 7.5 33.471H11.542C11.6746 33.471 11.8018 33.4183 11.8956 33.3246C11.9893 33.2308 12.042 33.1036 12.042 32.971V26.93C12.042 26.7974 11.9893 26.6702 11.8956 26.5765C11.8018 26.4827 11.6746 26.43 11.542 26.43H10.042V24.43H19.042V26.43H17.479C17.3464 26.43 17.2192 26.4827 17.1254 26.5765C17.0317 26.6702 16.979 26.7974 16.979 26.93V32.971C16.979 33.1036 17.0317 33.2308 17.1254 33.3246C17.2192 33.4183 17.3464 33.471 17.479 33.471H21.562C21.6946 33.471 21.8218 33.4183 21.9156 33.3246C22.0093 33.2308 22.062 33.1036 22.062 32.971V26.93C22.062 26.7974 22.0093 26.6702 21.9156 26.5765C21.8218 26.4827 21.6946 26.43 21.562 26.43H20.042V24.43H29.042V26.43H27.521C27.3884 26.43 27.2612 26.4827 27.1674 26.5765C27.0737 26.6702 27.021 26.7974 27.021 26.93V32.971C27.021 33.1036 27.0737 33.2308 27.1674 33.3246C27.2612 33.4183 27.3884 33.471 27.521 33.471H31.542C31.6746 33.471 31.8018 33.4183 31.8956 33.3246C31.9893 33.2308 32.042 33.1036 32.042 32.971V26.93C32.042 26.7974 31.9893 26.6702 31.8956 26.5765C31.8018 26.4827 31.6746 26.43 31.542 26.43Z" fill="white"/>
</g>
<defs>
<linearGradient id="paint0_linear_489_3009" x1="0" y1="40" x2="40" y2="0" gradientUnits="userSpaceOnUse">
<stop stop-color="#B0084D"/>
<stop offset="1" stop-color="#FF4F8B"/>
</linearGradient>
<clipPath id="clip0_489_3009">
<rect width="40" height="40" fill="white"/>
</clipPath>
</defs>
</svg>
