<svg width="48" height="48" viewBox="0 0 48 48" fill="none" xmlns="http://www.w3.org/2000/svg">
<path d="M45.5999 46.5024H2.39995C2.14534 46.5024 1.90116 46.4013 1.72112 46.2213C1.54109 46.0412 1.43995 45.797 1.43995 45.5424V42.6624C1.43705 37.7697 3.07863 33.0179 6.10103 29.1702C9.12343 25.3226 13.3513 22.6024 18.1055 21.4464C18.3389 21.393 18.5837 21.4236 18.7967 21.5328C20.3897 22.4025 22.1755 22.8582 23.9903 22.8582C25.8052 22.8582 27.591 22.4025 29.1839 21.5328C29.3927 21.4209 29.6355 21.3902 29.8655 21.4464C34.6268 22.5972 38.8623 25.3165 41.8905 29.1666C44.9187 33.0167 46.5634 37.7737 46.5599 42.672V45.552C46.5574 45.805 46.4552 46.0467 46.2754 46.2247C46.0956 46.4026 45.8529 46.5024 45.5999 46.5024ZM3.35995 44.5824H44.6399V42.6624C44.6412 38.2593 43.1808 33.9803 40.4878 30.4967C37.7947 27.0132 34.0215 24.5221 29.7599 23.4144C27.9715 24.3101 26.0001 24.7799 23.9999 24.7872C21.9985 24.7906 20.0247 24.3201 18.2399 23.4144C13.9776 24.524 10.2041 27.0169 7.51119 30.5021C4.81825 33.9873 3.35818 38.2677 3.35995 42.672V44.5824Z" fill="#232F3E"/>
<path d="M23.9998 24.72C22.0203 24.7272 20.0715 24.2317 18.3358 23.28C16.547 22.2776 15.0547 20.8206 14.0097 19.0564C12.9646 17.2923 12.4039 15.2834 12.3843 13.233C12.3647 11.1826 12.8868 9.16343 13.8979 7.37957C14.909 5.59571 16.3732 4.11045 18.1424 3.07399C19.9117 2.03752 21.9232 1.4866 23.9737 1.47694C26.0241 1.46727 28.0408 1.9992 29.8197 3.01893C31.5987 4.03866 33.0768 5.51005 34.1047 7.2843C35.1325 9.05854 35.6737 11.0727 35.6734 13.1232C35.675 15.2066 35.1116 17.2514 34.0432 19.04C32.9748 20.8285 31.4414 22.2939 29.6062 23.28C27.8846 24.2147 25.9587 24.7094 23.9998 24.72ZM23.9998 3.41762C21.8316 3.37533 19.712 4.06259 17.9811 5.36914C16.2502 6.67569 15.0083 8.52579 14.4548 10.6226C13.9013 12.7194 14.0681 14.9414 14.9286 16.932C15.789 18.9227 17.2932 20.5666 19.1998 21.6C20.6513 22.3873 22.2765 22.7997 23.9278 22.7997C25.5791 22.7997 27.2042 22.3873 28.6558 21.6C30.5506 20.572 32.0479 18.9408 32.9102 16.965C33.7725 14.9893 33.9504 12.7822 33.4156 10.6938C32.8808 8.60549 31.6641 6.75551 29.9583 5.43736C28.2526 4.11921 26.1555 3.40838 23.9998 3.41762Z" fill="#232F3E"/>
</svg>
