<svg width="40" height="40" viewBox="0 0 40 40" fill="none" xmlns="http://www.w3.org/2000/svg">
<g clip-path="url(#clip0_1441_17850)">
<path fill-rule="evenodd" clip-rule="evenodd" d="M0 0H40V40H0V0Z" fill="url(#paint0_linear_1441_17850)"/>
<path fill-rule="evenodd" clip-rule="evenodd" d="M25.912 17.587C25.6581 17.5867 25.4146 17.4859 25.2349 17.3065C25.0551 17.1272 24.9538 16.8839 24.953 16.63C24.961 16.3809 25.0657 16.1447 25.2447 15.9713C25.4238 15.7979 25.6633 15.701 25.9125 15.701C26.1617 15.701 26.4012 15.7979 26.5803 15.9713C26.7593 16.1447 26.864 16.3809 26.872 16.63C26.8712 16.8841 26.7697 17.1275 26.5898 17.3069C26.4098 17.4863 26.1661 17.587 25.912 17.587ZM23.479 23.413C23.2249 23.4127 22.9813 23.3118 22.8015 23.1322C22.6218 22.9526 22.5205 22.7091 22.52 22.455C22.528 22.2059 22.6327 21.9697 22.8117 21.7963C22.9908 21.6229 23.2303 21.526 23.4795 21.526C23.7287 21.526 23.9682 21.6229 24.1473 21.7963C24.3263 21.9697 24.431 22.2059 24.439 22.455C24.4385 22.7093 24.3371 22.9529 24.1571 23.1325C23.9771 23.3121 23.7333 23.413 23.479 23.413ZM17.641 22.443C17.5096 22.4524 17.3776 22.4347 17.2533 22.3909C17.1291 22.347 17.0152 22.2781 16.9187 22.1883C16.8223 22.0985 16.7454 21.9898 16.6929 21.8689C16.6403 21.7481 16.6132 21.6177 16.6133 21.486C16.6134 21.3542 16.6406 21.2239 16.6933 21.1031C16.7459 20.9823 16.823 20.8737 16.9195 20.784C17.016 20.6943 17.13 20.6254 17.2543 20.5817C17.3786 20.538 17.5106 20.5204 17.642 20.53C17.8825 20.5492 18.1069 20.6583 18.2704 20.8356C18.434 21.0128 18.5248 21.2452 18.5247 21.4865C18.5246 21.7277 18.4336 21.96 18.2698 22.1371C18.106 22.3142 17.8815 22.4231 17.641 22.442M15.21 27.782C14.9559 27.782 14.7122 27.6813 14.5322 27.5019C14.3523 27.3225 14.2508 27.0791 14.25 26.825C14.258 26.5759 14.3627 26.3397 14.5417 26.1663C14.7208 25.9929 14.9603 25.896 15.2095 25.896C15.4587 25.896 15.6982 25.9929 15.8773 26.1663C16.0563 26.3397 16.161 26.5759 16.169 26.825C16.1682 27.0789 16.0669 27.3222 15.8871 27.5015C15.7074 27.6809 15.4639 27.7817 15.21 27.782ZM25.912 14.674C25.393 14.6743 24.8954 14.8803 24.5281 15.247C24.1609 15.6137 23.9541 16.111 23.953 16.63C23.953 17.29 24.285 17.873 24.79 18.228L23.877 20.54C23.4104 20.4442 22.9248 20.5223 22.5117 20.7595C22.0986 20.9967 21.7865 21.3767 21.634 21.828L19.589 21.364C19.5686 20.8492 19.3456 20.3633 18.9688 20.0121C18.5919 19.6608 18.0915 19.4726 17.5765 19.4884C17.0616 19.5043 16.5737 19.7228 16.2191 20.0965C15.8645 20.4703 15.6718 20.9689 15.683 21.484C15.683 21.988 15.88 22.444 16.194 22.79L15.302 24.88C15.27 24.877 15.241 24.87 15.21 24.87C14.691 24.87 14.1933 25.0758 13.8258 25.4423C13.4584 25.8088 13.2513 26.306 13.25 26.825C13.2616 27.337 13.4731 27.8242 13.8393 28.1822C14.2055 28.5403 14.6973 28.7407 15.2095 28.7407C15.7217 28.7407 16.2135 28.5403 16.5797 28.1822C16.9459 27.8242 17.1574 27.337 17.169 26.825C17.169 26.133 16.805 25.528 16.261 25.18L17.048 23.338C17.236 23.398 17.433 23.44 17.641 23.44C18.412 23.44 19.073 22.99 19.393 22.343L21.558 22.834C21.6543 23.3096 21.9236 23.7325 22.3137 24.021C22.7038 24.3095 23.1871 24.443 23.67 24.3957C24.1529 24.3484 24.6011 24.1237 24.9279 23.765C25.2547 23.4064 25.4368 22.9392 25.439 22.454C25.439 21.872 25.178 21.354 24.77 20.996L25.729 18.566C25.791 18.572 25.85 18.585 25.912 18.585C26.431 18.585 26.9287 18.3792 27.2962 18.0127C27.6636 17.6462 27.8707 17.149 27.872 16.63C27.8709 16.1109 27.664 15.6134 27.2965 15.2467C26.9291 14.8799 26.4311 14.674 25.912 14.674ZM20.5 33.002C15.635 33.002 12 31.542 12 30.237V11.59C13.663 12.928 17.153 13.639 20.5 13.639C23.847 13.639 27.337 12.929 29 11.589V30.237C29 31.542 25.365 33.002 20.5 33.002ZM20.5 6.998C25.509 6.998 29 8.484 29 9.819C29 11.154 25.509 12.641 20.5 12.641C15.491 12.641 12 11.154 12 9.819C12 8.484 15.491 6.998 20.5 6.998ZM30 9.819C30 7.34 25.105 6 20.5 6C15.894 6 11 7.338 11 9.82L11.002 9.831H11V30.237C11 32.68 15.894 34 20.5 34C25.105 34 30 32.68 30 30.237V9.83H29.998L30 9.819Z" fill="white"/>
</g>
<defs>
<linearGradient id="paint0_linear_1441_17850" x1="0" y1="4000" x2="4000" y2="0" gradientUnits="userSpaceOnUse">
<stop stop-color="#4D27A8"/>
<stop offset="1" stop-color="#A166FF"/>
</linearGradient>
<clipPath id="clip0_1441_17850">
<rect width="40" height="40" fill="white"/>
</clipPath>
</defs>
</svg>
