<svg width="48" height="48" viewBox="0 0 48 48" fill="none" xmlns="http://www.w3.org/2000/svg">
<path fill-rule="evenodd" clip-rule="evenodd" d="M21.24 25.383C20.99 25.383 20.69 25.347 20.338 25.276C20.0156 25.2113 19.6987 25.1221 19.39 25.009V26.199C19.632 26.336 19.93 26.445 20.286 26.529C20.641 26.612 20.997 26.654 21.352 26.654C22.171 26.654 22.811 26.444 23.276 26.024C23.741 25.604 23.974 25.034 23.974 24.317C23.974 23.946 23.919 23.63 23.809 23.369C23.699 23.109 23.529 22.872 23.299 22.659C23.0138 22.4106 22.6995 22.1977 22.363 22.025L21.75 21.695C21.418 21.515 21.192 21.348 21.075 21.195C20.9529 21.0276 20.8905 20.8241 20.898 20.617C20.898 20.337 20.991 20.117 21.172 19.96C21.352 19.8 21.602 19.72 21.92 19.72C22.388 19.72 22.93 19.834 23.543 20.062V18.86C22.9865 18.5947 22.3785 18.4547 21.762 18.45C21.285 18.45 20.863 18.543 20.497 18.729C20.1382 18.9063 19.8369 19.1816 19.628 19.523C19.418 19.867 19.311 20.27 19.311 20.731C19.311 21.231 19.431 21.654 19.674 22.001C19.916 22.35 20.317 22.675 20.878 22.978L21.488 23.307C21.799 23.473 22.02 23.637 22.153 23.8C22.2872 23.9691 22.3574 24.1802 22.351 24.396C22.351 24.714 22.258 24.956 22.067 25.126C21.878 25.298 21.603 25.383 21.24 25.383ZM16.77 22.433C16.77 21.541 16.65 20.885 16.412 20.463C16.174 20.045 15.802 19.833 15.295 19.833H14.635V25.27H15.305C15.797 25.27 16.163 25.056 16.407 24.629C16.647 24.199 16.77 23.544 16.77 22.659V22.433ZM17.642 19.619C18.15 20.285 18.402 21.259 18.402 22.546C18.402 23.84 18.154 24.82 17.654 25.486C17.154 26.151 16.428 26.484 15.476 26.484H13.048V18.62H15.419C16.395 18.62 17.135 18.954 17.642 19.619ZM10.201 21.094C10.201 20.671 10.122 20.35 9.969 20.13C9.813 19.91 9.588 19.8 9.293 19.8H8.555V22.388H9.293C9.588 22.388 9.813 22.278 9.969 22.058C10.123 21.838 10.201 21.518 10.201 21.094ZM10.586 23.33L12.174 26.484H10.541L9.168 23.568H8.555V26.484H7.002V18.62H9.486C10.181 18.62 10.736 18.84 11.148 19.284C11.56 19.726 11.765 20.329 11.765 21.093C11.765 21.622 11.664 22.08 11.46 22.466C11.2681 22.8395 10.9619 23.1428 10.586 23.33ZM41.593 15.138V10.883C41.593 10.331 41.477 9.911 41.247 9.623C41.016 9.336 40.681 9.193 40.243 9.193C39.69 9.193 39.113 9.416 38.507 9.862L38.383 9.34H37.11V15.138H38.665V10.645C38.945 10.463 39.202 10.372 39.435 10.372C39.655 10.372 39.811 10.448 39.902 10.599C39.992 10.751 40.038 10.993 40.038 11.325V15.138H41.593ZM34.468 12.245C34.468 11.602 34.405 11.129 34.28 10.825C34.157 10.524 33.953 10.372 33.675 10.372C33.395 10.372 33.192 10.524 33.067 10.826C32.943 11.129 32.879 11.602 32.879 12.245C32.879 12.888 32.943 13.359 33.067 13.657C33.191 13.956 33.395 14.106 33.675 14.106C33.954 14.106 34.157 13.956 34.281 13.656C34.406 13.359 34.469 12.888 34.469 12.245H34.468ZM35.41 9.987C35.819 10.516 36.023 11.269 36.023 12.245C36.023 13.213 35.818 13.961 35.41 14.49C35.003 15.02 34.424 15.285 33.675 15.285C32.927 15.285 32.347 15.021 31.938 14.49C31.529 13.96 31.326 13.213 31.326 12.245C31.326 11.269 31.529 10.515 31.937 9.987C32.347 9.457 32.927 9.193 33.675 9.193C34.423 9.193 35.002 9.457 35.41 9.987ZM26.595 15.137H30.622V13.946H28.23L30.578 10.441V9.34H26.685V10.53H28.943L26.595 14.037V15.137ZM24.234 13.833V12.72C24.0426 12.6632 23.8436 12.6362 23.644 12.64C23.426 12.64 23.257 12.71 23.14 12.85C23.021 12.99 22.963 13.194 22.963 13.457C22.963 13.685 23.01 13.864 23.105 13.996C23.1464 14.0585 23.2029 14.1095 23.2694 14.1441C23.3359 14.1788 23.4101 14.1959 23.485 14.194C23.735 14.194 23.985 14.073 24.233 13.832L24.234 13.833ZM23.769 15.099C23.5418 15.2191 23.289 15.2829 23.032 15.285C22.562 15.285 22.192 15.133 21.921 14.825C21.648 14.52 21.511 14.098 21.511 13.561C21.511 12.993 21.677 12.545 22.011 12.216C22.343 11.886 22.794 11.723 23.361 11.723C23.594 11.723 23.885 11.769 24.233 11.859V11.337C24.233 10.944 24.183 10.677 24.081 10.537C23.979 10.397 23.788 10.327 23.509 10.327C23.053 10.327 22.499 10.447 21.841 10.69V9.657C22.059 9.514 22.346 9.401 22.702 9.317C23.0594 9.23392 23.4251 9.19231 23.792 9.193C24.449 9.193 24.926 9.342 25.222 9.641C25.516 9.94 25.664 10.418 25.664 11.076V15.138H24.461L24.326 14.616C24.1855 14.8223 23.9939 14.9887 23.77 15.099H23.769ZM20.411 15.138V10.883C20.411 10.338 20.297 9.921 20.071 9.629C19.843 9.338 19.517 9.193 19.094 9.193C18.565 9.193 17.99 9.423 17.37 9.885C17.15 9.423 16.772 9.193 16.236 9.193C15.706 9.193 15.138 9.416 14.534 9.862L14.408 9.34H13.138V15.138H14.693V10.645C14.972 10.463 15.219 10.372 15.43 10.372C15.634 10.372 15.78 10.448 15.868 10.599C15.954 10.751 15.998 10.989 15.998 11.315V15.138H17.552V10.77C17.5527 10.7281 17.549 10.6862 17.541 10.645C17.821 10.463 18.071 10.372 18.289 10.372C18.493 10.372 18.639 10.448 18.727 10.599C18.812 10.751 18.857 10.989 18.857 11.315V15.138H20.411ZM10.008 12.132L9.293 8.875L8.601 12.132H10.008ZM12.402 15.138H10.655L10.245 13.266H8.364L7.967 15.138H6.297L8.475 7.276H10.233L12.401 15.138H12.402ZM44.002 30.006V26.47C42.272 27.413 39.648 27.902 37.036 27.902C34.425 27.902 31.801 27.412 30.071 26.47V30.005C30.071 30.634 32.441 32.109 37.036 32.109C41.632 32.109 44.002 30.634 44.002 30.005V30.006ZM44.002 36.104V32.678C42.272 33.621 39.648 34.11 37.036 34.11C34.425 34.11 31.801 33.62 30.071 32.678V36.104C30.071 36.733 32.441 38.207 37.036 38.207C41.632 38.207 44.002 36.733 44.002 36.104ZM44.002 41.548V38.776C42.272 39.719 39.648 40.206 37.036 40.206C34.425 40.206 31.801 39.719 30.071 38.776V41.548C30.071 42.177 32.441 43.652 37.036 43.652C41.632 43.652 44.002 42.177 44.002 41.548ZM30.072 23.798C30.072 24.428 32.441 25.903 37.036 25.903C41.632 25.903 44.002 24.428 44.002 23.799C44.002 23.169 41.632 21.695 37.036 21.695C32.44 21.695 30.071 23.17 30.071 23.799L30.072 23.798ZM46.002 23.798V41.548C46.002 44.242 41.492 45.652 37.036 45.652C32.581 45.652 28.071 44.242 28.071 41.548V23.798C28.071 21.105 32.581 19.696 37.036 19.696C41.492 19.696 46.002 21.104 46.002 23.798ZM7.755 43.893H27.437V45.893H7.755C6.22909 45.8917 4.76605 45.2849 3.68706 44.2059C2.60808 43.127 2.00132 41.6639 2 40.138V7.755C2.00159 6.22934 2.60829 4.76661 3.687 3.68771C4.76571 2.60881 6.22834 2.00185 7.754 2H40.137C41.6628 2.00185 43.1255 2.60878 44.2044 3.68765C45.2832 4.76652 45.8901 6.22925 45.892 7.755V20.455H43.892V7.755C43.8907 6.75935 43.4945 5.80486 42.7904 5.10092C42.0862 4.39698 41.1317 4.00106 40.136 4H7.755C6.7597 4.00132 5.80558 4.39743 5.10198 5.1014C4.39839 5.80537 4.00279 6.7597 4.002 7.755V40.138C4.00306 41.1331 4.39877 42.0872 5.10234 42.791C5.8059 43.4947 6.75988 43.8907 7.755 43.892V43.893Z" fill="#2E27AD"/>
</svg>
