<svg width="40" height="40" viewBox="0 0 40 40" fill="none" xmlns="http://www.w3.org/2000/svg">
<g clip-path="url(#clip0_1441_17855)">
<path fill-rule="evenodd" clip-rule="evenodd" d="M0 0H40V40H0V0Z" fill="url(#paint0_linear_1441_17855)"/>
<path fill-rule="evenodd" clip-rule="evenodd" d="M26.066 31.019V28.153C24.54 29.461 21.372 30.323 17.528 30.323C13.681 30.323 10.513 29.46 8.987 28.151V31.014C8.987 32.425 12.495 33.998 17.527 33.998C22.554 33.998 26.058 32.428 26.067 31.018L26.066 31.019ZM26.067 22.844L27.054 22.838V22.844C27.054 23.469 26.742 24.051 26.148 24.586C26.874 25.239 27.054 25.88 27.054 26.336L27.053 26.344V31.014C27.053 33.286 22.959 35 17.528 35C12.125 35 8.048 33.304 8.005 31.049C8.005 31.039 8 31.033 8 31.024V26.334L8.002 26.326C8.004 25.872 8.185 25.236 8.902 24.589C8.186 23.939 8.005 23.305 8.001 22.855L8 22.85V18.16L8.002 18.153C8.004 17.698 8.186 17.063 8.904 16.415C8.186 15.765 8.004 15.132 8.001 14.681L8 14.675V9.985C8 9.979 8.003 9.976 8.003 9.971C8.023 7.706 12.109 6 17.528 6C20.136 6 22.642 6.43 24.402 7.177L24.021 8.102C22.378 7.402 20.011 7.002 17.528 7.002C12.495 7.002 8.988 8.575 8.988 9.986C8.988 11.399 12.495 12.972 17.528 12.972C17.666 12.973 17.796 12.972 17.931 12.966L17.971 13.966C17.823 13.974 17.675 13.974 17.528 13.974C13.681 13.974 10.513 13.111 8.987 11.802V14.676C8.993 15.221 9.53 15.696 9.979 15.998C11.327 16.888 13.742 17.494 16.433 17.62L16.386 18.62C13.663 18.494 11.276 17.908 9.741 17.012C9.357 17.307 8.988 17.704 8.988 18.162C8.988 19.573 12.495 21.146 17.528 21.146C18.024 21.146 18.508 21.129 18.981 21.096L19.053 22.094C18.557 22.13 18.047 22.148 17.528 22.148C13.681 22.148 10.513 21.286 8.987 19.977V22.838C8.993 23.396 9.529 23.871 9.979 24.172C11.519 25.19 14.413 25.822 17.528 25.822H17.747V26.825H17.527C14.362 26.825 11.498 26.213 9.742 25.184C9.358 25.479 8.988 25.877 8.988 26.336C8.988 27.747 12.495 29.32 17.528 29.32C22.552 29.32 26.055 27.753 26.066 26.342V26.333C26.066 25.878 25.699 25.483 25.317 25.188C25.074 25.331 24.812 25.468 24.516 25.594L24.134 24.672C24.496 24.516 24.812 24.349 25.073 24.172C25.526 23.866 26.067 23.386 26.067 22.844ZM31.355 14.489H28.072C27.9934 14.4886 27.916 14.4693 27.8464 14.4327C27.7768 14.3962 27.717 14.3435 27.672 14.279C27.6262 14.2142 27.5962 14.1395 27.5846 14.061C27.5729 13.9825 27.5799 13.9023 27.605 13.827L29.06 9.479H22.532L19.411 15.491H22.58C22.6562 15.4911 22.7312 15.509 22.7993 15.5432C22.8673 15.5774 22.9265 15.627 22.972 15.688C23.0183 15.7495 23.0499 15.8207 23.0645 15.8963C23.079 15.9718 23.0761 16.0497 23.056 16.124L20.338 26.232L31.355 14.489ZM32.865 14.334L19.705 28.36C19.6293 28.4397 19.5292 28.4919 19.4205 28.5082C19.3118 28.5245 19.2007 28.504 19.105 28.45C19.0092 28.3941 18.9344 28.3081 18.8923 28.2055C18.8502 28.1028 18.843 27.9891 18.872 27.882L21.935 16.492H18.593C18.5075 16.4919 18.4236 16.4695 18.3494 16.4271C18.2753 16.3846 18.2134 16.3236 18.17 16.25C18.1259 16.176 18.1015 16.0919 18.099 16.0058C18.0966 15.9197 18.1162 15.8344 18.156 15.758L21.798 8.745C21.8393 8.66489 21.9018 8.59764 21.9787 8.55057C22.0556 8.50349 22.1439 8.47839 22.234 8.478H29.749C29.909 8.478 30.058 8.556 30.15 8.687C30.1955 8.75214 30.2252 8.82703 30.2367 8.90568C30.2481 8.98433 30.2411 9.06457 30.216 9.14L28.761 13.487H32.507C32.705 13.487 32.883 13.607 32.961 13.791C32.9987 13.8812 33.0097 13.9803 32.9927 14.0766C32.9757 14.1729 32.9314 14.2622 32.865 14.334ZM9.728 31.04C10.299 31.372 10.998 31.666 11.807 31.91L12.088 30.95C11.354 30.728 10.725 30.466 10.219 30.171L9.728 31.04ZM11.807 23.808L12.088 22.848C11.356 22.627 10.728 22.364 10.219 22.068L9.728 22.938C10.301 23.272 11.001 23.565 11.807 23.808ZM9.727 14.834L10.219 13.966C10.724 14.26 11.354 14.524 12.089 14.746L11.807 15.706C10.997 15.462 10.299 15.168 9.727 14.834Z" fill="white"/>
</g>
<defs>
<linearGradient id="paint0_linear_1441_17855" x1="0" y1="4000" x2="4000" y2="0" gradientUnits="userSpaceOnUse">
<stop stop-color="#2E27AD"/>
<stop offset="1" stop-color="#527FFF"/>
</linearGradient>
<clipPath id="clip0_1441_17855">
<rect width="40" height="40" fill="white"/>
</clipPath>
</defs>
</svg>
