<svg width="40" height="40" viewBox="0 0 40 40" fill="none" xmlns="http://www.w3.org/2000/svg">
<g clip-path="url(#clip0_489_3023)">
<path fill-rule="evenodd" clip-rule="evenodd" d="M0 0H40V40H0V0Z" fill="url(#paint0_linear_489_3023)"/>
<path fill-rule="evenodd" clip-rule="evenodd" d="M12.004 27.608L16.271 24.117L16.903 24.89L12.039 28.872L8.91 26.589L9.5 25.781L12.004 27.608ZM9.5 10.474C9.5 8.558 11.07 7 13 7C14.93 7 16.5 8.558 16.5 10.474C16.5 12.39 14.93 13.948 13 13.948C11.07 13.948 9.5 12.39 9.5 10.474ZM13.022 14.979C13.038 14.98 14.717 14.94 16.324 15.934L16.85 15.083C16.3366 14.769 15.7851 14.522 15.209 14.348C16.57 13.578 17.5 12.139 17.5 10.474C17.5 8.007 15.482 6 13 6C10.519 6 8.5 8.007 8.5 10.474C8.5 12.124 9.413 13.551 10.753 14.327C7.313 15.376 6.336 18.722 6.103 19.88L7.083 20.078C7.391 18.551 8.583 14.98 13.022 14.979ZM19 29.979V22.61C20.507 21.532 22.186 20.979 24 20.979C25.638 20.979 27.286 21.437 28.643 22.268C31.117 23.784 32.821 26.837 32.986 29.979H19ZM18 30.17L12.5 32.979L7 30.17V22.788L12.5 19.979L18 22.788V30.17ZM19.25 15.229C19.2516 13.9697 19.7525 12.7624 20.643 11.872C21.5334 10.9815 22.7407 10.4806 24 10.479C25.2593 10.4806 26.4666 10.9815 27.357 11.872C28.2475 12.7624 28.7484 13.9697 28.75 15.229C28.7484 16.4883 28.2475 17.6956 27.357 18.586C26.4666 19.4765 25.2593 19.9774 24 19.979C22.7407 19.9774 21.5334 19.4765 20.643 18.586C19.7525 17.6956 19.2516 16.4883 19.25 15.229ZM34 30.479C34 26.773 32.102 23.214 29.164 21.415C28.3751 20.937 27.5222 20.5737 26.631 20.336C27.5694 19.8529 28.3568 19.1208 28.9069 18.22C29.457 17.3193 29.7487 16.2845 29.75 15.229C29.75 12.059 27.171 9.479 24 9.479C22.4756 9.48085 21.0141 10.0872 19.9362 11.1652C18.8582 12.2431 18.2519 13.7046 18.25 15.229C18.2513 16.2885 18.5453 17.3271 19.0996 18.23C19.6538 19.133 20.4468 19.8653 21.391 20.346C20.2972 20.6625 19.268 21.17 18.351 21.845L12.5 18.979L6 22.17V30.788L12.5 33.979L18.618 30.979H34V30.479Z" fill="white"/>
</g>
<defs>
<linearGradient id="paint0_linear_489_3023" x1="0" y1="40" x2="40" y2="0" gradientUnits="userSpaceOnUse">
<stop stop-color="#2E27AD"/>
<stop offset="1" stop-color="#527FFF"/>
</linearGradient>
<clipPath id="clip0_489_3023">
<rect width="40" height="40" fill="white"/>
</clipPath>
</defs>
</svg>
