<svg width="48" height="48" viewBox="0 0 48 48" fill="none" xmlns="http://www.w3.org/2000/svg">
<path fill-rule="evenodd" clip-rule="evenodd" d="M10.149 26.404C9.58496 26.4035 9.04415 26.1792 8.64521 25.7805C8.24628 25.3817 8.02179 24.841 8.021 24.277C8.02153 23.7128 8.2459 23.1718 8.64486 22.7729C9.04382 22.3739 9.58478 22.1495 10.149 22.149C10.7132 22.1495 11.2542 22.3739 11.6531 22.7729C12.0521 23.1718 12.2765 23.7128 12.277 24.277C12.2762 24.841 12.0517 25.3817 11.6528 25.7805C11.2539 26.1792 10.713 26.4035 10.149 26.404ZM10.149 20.149C9.05459 20.1503 8.00539 20.5857 7.23152 21.3595C6.45766 22.1334 6.02232 23.1826 6.021 24.277C6.02259 25.3712 6.45804 26.4202 7.23188 27.1938C8.00571 27.9675 9.05477 28.4027 10.149 28.404C11.2432 28.4027 12.2923 27.9675 13.0661 27.1938C13.84 26.4202 14.2754 25.3712 14.277 24.277C14.2757 23.1826 13.8403 22.1334 13.0665 21.3595C12.2926 20.5857 11.2434 20.1503 10.149 20.149ZM41.86 26.404H23.062C22.8496 26.4041 22.6428 26.4718 22.4714 26.5972C22.3001 26.7227 22.1731 26.8995 22.109 27.102C21.5176 28.9788 20.3414 30.6173 18.7524 31.7779C17.1634 32.9386 15.2448 33.5606 13.277 33.553C8.162 33.553 4 29.392 4 24.277C4 19.162 8.162 15 13.277 15C15.2448 14.9924 17.1634 15.6144 18.7524 16.7751C20.3414 17.9357 21.5176 19.5742 22.109 21.451C22.1731 21.6535 22.3001 21.8303 22.4714 21.9558C22.6428 22.0813 22.8496 22.1489 23.062 22.149H26.234C26.3653 22.1491 26.4954 22.1233 26.6167 22.073C26.7381 22.0228 26.8483 21.949 26.941 21.856L28.915 19.883L30.889 21.856C31.0765 22.0436 31.3308 22.1489 31.596 22.149H33.383C33.649 22.149 33.903 22.044 34.09 21.856L36.064 19.883L38.038 21.856C38.1307 21.949 38.2409 22.0228 38.3622 22.0731C38.4836 22.1234 38.6137 22.1492 38.745 22.149H41.049L43.597 24.378L41.86 26.404ZM45.659 23.524L42.084 20.396C41.9015 20.2366 41.6673 20.1489 41.425 20.149H39.159L36.771 17.761C36.5835 17.5735 36.3292 17.4682 36.064 17.4682C35.7988 17.4682 35.5445 17.5735 35.357 17.761L32.969 20.149H32.01L29.622 17.761C29.4345 17.5735 29.1802 17.4682 28.915 17.4682C28.6498 17.4682 28.3955 17.5735 28.208 17.761L25.82 20.149H23.769C22.091 15.843 17.964 13 13.277 13C7.058 13 2 18.058 2 24.277C2 30.495 7.058 35.553 13.277 35.553C17.964 35.553 22.091 32.71 23.769 28.404H42.32C42.4643 28.4039 42.6068 28.3726 42.7379 28.3122C42.8689 28.2518 42.9853 28.1637 43.079 28.054L45.759 24.927C45.9309 24.7273 46.0169 24.4677 45.9982 24.2049C45.9794 23.9421 45.8575 23.6973 45.659 23.524Z" fill="#BF0816"/>
</svg>
