<svg width="48" height="48" viewBox="0 0 48 48" fill="none" xmlns="http://www.w3.org/2000/svg">
<path fill-rule="evenodd" clip-rule="evenodd" d="M20.29 18.04L21.704 19.454L14.706 26.452C14.6133 26.5452 14.5032 26.6191 14.3819 26.6696C14.2605 26.7201 14.1304 26.746 13.999 26.746C13.8676 26.746 13.7375 26.7201 13.6161 26.6696C13.4948 26.6191 13.3847 26.5452 13.292 26.452L9.792 22.953L11.206 21.539L13.999 24.331L20.289 18.04H20.29ZM20.29 6.667L21.704 8.081L14.706 15.079C14.6133 15.1722 14.5032 15.2461 14.3819 15.2966C14.2605 15.3471 14.1304 15.373 13.999 15.373C13.8676 15.373 13.7375 15.3471 13.6161 15.2966C13.4948 15.2461 13.3847 15.1722 13.292 15.079L9.792 11.58L11.206 10.166L13.999 12.958L20.289 6.667H20.29ZM19.955 32.576L16.725 35.806L19.955 39.035L18.541 40.449L15.311 37.22L12.081 40.449L10.667 39.035L13.897 35.806L10.667 32.576L12.081 31.162L15.311 34.392L18.541 31.162L19.955 32.576ZM39.243 43.186C39.2427 43.3994 39.1578 43.604 39.0069 43.7549C38.856 43.9058 38.6514 43.9907 38.438 43.991H8.806C8.59241 43.991 8.38755 43.9062 8.23643 43.7553C8.0853 43.6043 8.00027 43.3996 8 43.186V4.806C8 4.361 8.36 4 8.806 4H38.438C38.882 4 39.243 4.361 39.243 4.806V43.186ZM38.438 2H8.806C8.06213 2.00106 7.34903 2.29703 6.82303 2.82303C6.29703 3.34903 6.00106 4.06213 6 4.806V43.186C6.00132 43.9297 6.29741 44.6425 6.82338 45.1683C7.34935 45.6941 8.0623 45.9899 8.806 45.991H38.438C39.1817 45.9902 39.8947 45.6944 40.4206 45.1686C40.9464 44.6427 41.2422 43.9297 41.243 43.186V4.806C41.2422 4.06222 40.9465 3.34911 40.4206 2.82309C39.8948 2.29706 39.1818 2.00106 38.438 2Z" fill="#BF0816"/>
</svg>
