<svg width="40" height="40" viewBox="0 0 40 40" fill="none" xmlns="http://www.w3.org/2000/svg">
<g clip-path="url(#clip0_489_3027)">
<path fill-rule="evenodd" clip-rule="evenodd" d="M0 0H40V40H0V0Z" fill="url(#paint0_linear_489_3027)"/>
<path fill-rule="evenodd" clip-rule="evenodd" d="M17 27H18V26H17V27ZM12 27H16V26H12V27ZM12 24H18V23H12V24ZM33 14H10V19H20V16.5C20 16.3674 20.0527 16.2402 20.1464 16.1464C20.2402 16.0527 20.3674 16 20.5 16H31.5C31.6326 16 31.7598 16.0527 31.8536 16.1464C31.9473 16.2402 32 16.3674 32 16.5V19H33V14ZM21.859 27H30.244C30.036 25.537 28.918 24.414 27.15 23.912C26.7954 24.0668 26.4138 24.1503 26.027 24.158C25.636 24.158 25.265 24.062 24.908 23.916C23.167 24.417 22.064 25.537 21.859 27ZM27.971 21.24C27.9678 20.7272 27.7614 20.2367 27.3969 19.876C27.0324 19.5153 26.5398 19.3139 26.027 19.316C25.5144 19.3141 25.022 19.5156 24.6577 19.8763C24.2935 20.237 24.0872 20.7274 24.084 21.24C24.084 21.937 24.468 22.581 25.086 22.919C25.3747 23.0752 25.6979 23.1569 26.0261 23.1567C26.3544 23.1565 26.6774 23.0745 26.966 22.918C27.2691 22.7547 27.5224 22.5126 27.6993 22.2172C27.8762 21.9219 27.9701 21.5843 27.971 21.24ZM21 20V26.256C21.38 24.902 22.382 23.831 23.879 23.212C23.3737 22.6791 23.0896 21.9743 23.084 21.24C23.084 19.628 24.404 18.316 26.027 18.316C27.65 18.316 28.971 19.628 28.971 21.24C28.971 21.984 28.671 22.677 28.177 23.208C29.551 23.776 30.541 24.729 31 25.919V17H21V20ZM33 20H32V27.5C32 27.6326 31.9473 27.7598 31.8536 27.8536C31.7598 27.9473 31.6326 28 31.5 28H20.5C20.3674 28 20.2402 27.9473 20.1464 27.8536C20.0527 27.7598 20 27.6326 20 27.5V20H10V30H33V20ZM34 13.5V30.5C34 30.6326 33.9473 30.7598 33.8536 30.8536C33.7598 30.9473 33.6326 31 33.5 31H9.5C9.36739 31 9.24021 30.9473 9.14645 30.8536C9.05268 30.7598 9 30.6326 9 30.5V13.5C9 13.3674 9.05268 13.2402 9.14645 13.1464C9.24021 13.0527 9.36739 13 9.5 13H33.5C33.6326 13 33.7598 13.0527 33.8536 13.1464C33.9473 13.2402 34 13.3674 34 13.5ZM7 26H8V27H6.5C6.36739 27 6.24021 26.9473 6.14645 26.8536C6.05268 26.7598 6 26.6326 6 26.5V10.5C6 10.3674 6.05268 10.2402 6.14645 10.1464C6.24021 10.0527 6.36739 10 6.5 10H30.5C30.6326 10 30.7598 10.0527 30.8536 10.1464C30.9473 10.2402 31 10.3674 31 10.5V12H30V11H7V26Z" fill="white"/>
</g>
<defs>
<linearGradient id="paint0_linear_489_3027" x1="0" y1="40" x2="40" y2="0" gradientUnits="userSpaceOnUse">
<stop stop-color="#BD0816"/>
<stop offset="1" stop-color="#FF5252"/>
</linearGradient>
<clipPath id="clip0_489_3027">
<rect width="40" height="40" fill="white"/>
</clipPath>
</defs>
</svg>
