<svg width="48" height="48" viewBox="0 0 48 48" fill="none" xmlns="http://www.w3.org/2000/svg">
<path d="M14.1023 24.96H2.39995C2.14534 24.96 1.90116 24.8589 1.72113 24.6788C1.54109 24.4988 1.43995 24.2546 1.43995 24V22.56C1.43685 19.9979 2.29585 17.5092 3.87872 15.4945C5.46159 13.4797 7.67627 12.0562 10.1663 11.4528C10.4006 11.397 10.6473 11.4312 10.8575 11.5488C11.5854 11.9387 12.3983 12.1427 13.2239 12.1427C14.0496 12.1427 14.8625 11.9387 15.5903 11.5488C15.8005 11.4312 16.0473 11.397 16.2815 11.4528C17.5859 11.7716 18.824 12.3176 19.9391 13.0656L18.8639 14.6592C18.0344 14.1135 17.124 13.7021 16.1663 13.44C15.2436 13.8648 14.2398 14.0847 13.2239 14.0847C12.2081 14.0847 11.2043 13.8648 10.2815 13.44C8.29101 14.0004 6.53785 15.1953 5.28852 16.8431C4.0392 18.491 3.36203 20.5017 3.35995 22.5696V23.04H14.1023V24.96Z" fill="#232F3E"/>
<path d="M13.2097 14.0448C11.5395 14.0448 9.93766 13.3813 8.75663 12.2003C7.57561 11.0193 6.91211 9.41745 6.91211 7.74722C6.91211 6.077 7.57561 4.47518 8.75663 3.29415C9.93766 2.11312 11.5395 1.44962 13.2097 1.44962C14.6137 1.43632 15.9818 1.89333 17.096 2.74782C18.2101 3.60232 19.0062 4.80514 19.3574 6.16461C19.7086 7.52409 19.5947 8.96199 19.0338 10.2492C18.4729 11.5364 17.4973 12.5988 16.2625 13.2672C15.3258 13.7774 14.2763 14.0447 13.2097 14.0448ZM13.2097 3.36962C12.0427 3.36451 10.9213 3.82255 10.0917 4.64324C9.26197 5.46393 8.79173 6.58024 8.78411 7.74722C8.78294 8.53391 8.99471 9.30624 9.39697 9.9823C9.79923 10.6584 10.377 11.2129 11.0689 11.5872C11.726 11.9443 12.4619 12.1314 13.2097 12.1314C13.9575 12.1314 14.6935 11.9443 15.3505 11.5872C16.2093 11.1219 16.8873 10.3821 17.2763 9.48609C17.6652 8.59009 17.7426 7.58959 17.4961 6.64444C17.2496 5.69929 16.6934 4.86403 15.9164 4.27214C15.1394 3.68024 14.1864 3.36586 13.2097 3.37922V3.36962ZM45.6001 24.96H33.8977V23.04H44.6401V22.56C44.6369 20.4921 43.958 18.4819 42.7068 16.8355C41.4555 15.1891 39.7005 13.9968 37.7089 13.44C36.7874 13.8692 35.7831 14.0916 34.7665 14.0916C33.7499 14.0916 32.7457 13.8692 31.8241 13.44C30.8462 13.707 29.9209 14.1388 29.0881 14.7168L28.0033 13.1424C29.1145 12.3599 30.3612 11.7903 31.6801 11.4624C31.9135 11.409 32.1582 11.4396 32.3713 11.5488C33.101 11.9437 33.9176 12.1505 34.7473 12.1505C35.577 12.1505 36.3936 11.9437 37.1233 11.5488C37.3321 11.4369 37.5748 11.4062 37.8049 11.4624C40.2968 12.0639 42.5136 13.4867 44.0984 15.5016C45.6831 17.5165 46.5435 20.0062 46.5409 22.5696V24C46.541 24.2513 46.4425 24.4927 46.2666 24.6721C46.0907 24.8516 45.8514 24.955 45.6001 24.96Z" fill="#232F3E"/>
<path d="M34.7517 14.0448C33.2063 14.0426 31.7147 13.4764 30.557 12.4526C29.3993 11.4287 28.6551 10.0176 28.464 8.48399C28.2728 6.95037 28.648 5.39972 29.5189 4.12305C30.3899 2.84637 31.6969 1.93144 33.1945 1.54997C34.6922 1.16849 36.2776 1.34668 37.6532 2.05112C39.0288 2.75555 40.1 3.93779 40.6659 5.37596C41.2317 6.81413 41.2532 8.40936 40.7264 9.86228C40.1996 11.3152 39.1606 12.5259 37.8045 13.2672C36.8679 13.7774 35.8183 14.0447 34.7517 14.0448ZM34.7517 3.36961C33.5847 3.3645 32.4634 3.82254 31.6337 4.64323C30.804 5.46392 30.3338 6.58022 30.3261 7.74721C30.325 8.53389 30.5367 9.30622 30.939 9.98228C31.3413 10.6583 31.919 11.2129 32.6109 11.5872C33.268 11.9443 34.0039 12.1314 34.7517 12.1314C35.4996 12.1314 36.2355 11.9443 36.8925 11.5872C37.7565 11.1244 38.4397 10.3844 38.8322 9.48631C39.2248 8.58823 39.3039 7.58421 39.0568 6.63574C38.8097 5.68727 38.2508 4.84946 37.4699 4.25705C36.6891 3.66465 35.7317 3.35208 34.7517 3.36961ZM39.3021 46.5504H8.63975C8.38514 46.5504 8.14096 46.4493 7.96092 46.2692C7.78089 46.0892 7.67975 45.845 7.67975 45.5904V43.5552C7.67005 40.015 8.85234 36.5746 11.0362 33.7883C13.22 31.0019 16.2782 29.0317 19.7181 28.1952C19.9512 28.1365 20.1979 28.1673 20.4093 28.2816C21.5022 28.8657 22.7222 29.1712 23.9613 29.1712C25.2005 29.1712 26.4205 28.8657 27.5133 28.2816C27.7248 28.1673 27.9715 28.1365 28.2045 28.1952C31.6489 29.0265 34.7124 30.9946 36.9003 33.7817C39.0881 36.5688 40.2725 40.012 40.2621 43.5552V45.5904C40.2621 45.845 40.161 46.0892 39.981 46.2692C39.8009 46.4493 39.5567 46.5504 39.3021 46.5504ZM9.59975 44.6304H38.3421V43.5552C38.3413 40.509 37.3363 37.5481 35.4829 35.1306C33.6295 32.7132 31.0309 30.974 28.0893 30.1824C26.8024 30.8053 25.3911 31.1289 23.9613 31.1289C22.5316 31.1289 21.1203 30.8053 19.8333 30.1824C16.8954 30.9776 14.3011 32.7183 12.4514 35.1354C10.6017 37.5525 9.5995 40.5115 9.59975 43.5552V44.6304Z" fill="#232F3E"/>
<path d="M24.0001 31.0944C22.5478 31.0974 21.1181 30.7342 19.8433 30.0384C18.1589 29.1182 16.8289 27.6632 16.0631 25.9032C15.2973 24.1432 15.1394 22.1783 15.6143 20.3185C16.0892 18.4588 17.1698 16.8102 18.6857 15.6327C20.2015 14.4553 22.0663 13.8162 23.9857 13.8162C25.9051 13.8162 27.7699 14.4553 29.2857 15.6327C30.8016 16.8102 31.8822 18.4588 32.3571 20.3185C32.832 22.1783 32.6741 24.1432 31.9083 25.9032C31.1426 27.6632 29.8125 29.1182 28.1281 30.0384C26.8618 30.7295 25.4427 31.0926 24.0001 31.0944ZM24.0001 15.9744C22.5283 15.9575 21.0931 16.4334 19.923 17.3264C18.753 18.2193 17.9152 19.4781 17.5432 20.9022C17.1712 22.3263 17.2862 23.8339 17.87 25.1851C18.4538 26.5363 19.4729 27.6533 20.7649 28.3584C21.7551 28.8903 22.8617 29.1687 23.9857 29.1687C25.1097 29.1687 26.2163 28.8903 27.2065 28.3584C28.5043 27.6599 29.5302 26.5462 30.1202 25.1956C30.7102 23.845 30.83 22.3356 30.4606 20.9088C30.0912 19.482 29.2539 18.2204 28.0826 17.3258C26.9113 16.4312 25.4738 15.9554 24.0001 15.9744Z" fill="#232F3E"/>
</svg>
