<svg width="40" height="40" viewBox="0 0 40 40" fill="none" xmlns="http://www.w3.org/2000/svg">
<g clip-path="url(#clip0_489_3031)">
<path fill-rule="evenodd" clip-rule="evenodd" d="M0 0H40V40H0V0Z" fill="url(#paint0_linear_489_3031)"/>
<path fill-rule="evenodd" clip-rule="evenodd" d="M9 17H15V16H9V17ZM31 13V9.3C31 8.583 30.535 8 29.963 8H8.037C7.475 8 7 8.596 7 9.3V13H18V9.5C18 9.36739 18.0527 9.24021 18.1464 9.14645C18.2402 9.05268 18.3674 9 18.5 9H29.5C29.6326 9 29.7598 9.05268 29.8536 9.14645C29.9473 9.24021 30 9.36739 30 9.5V13H31ZM22 14C22 15.104 22.897 16 24 16C25.103 16 26 15.104 26 14C26 12.897 25.103 12 24 12C22.897 12 22 12.897 22 14ZM31 14H30V19H29V10H19V18.696C19.7049 17.5457 20.8066 16.6934 22.097 16.3C21.7555 16.0215 21.48 15.6708 21.2904 15.2731C21.1007 14.8754 21.0015 14.4406 21 14C21 12.346 22.346 11 24 11C25.654 11 27 12.346 27 14C27 14.966 26.533 15.817 25.823 16.366C27.042 16.787 28.108 17.609 28.781 18.72L27.926 19.238C27.3306 18.2602 26.3917 17.5398 25.293 17.218C24.8487 17.4241 24.3648 17.5308 23.875 17.5308C23.3852 17.5308 22.9013 17.4241 22.457 17.218C21.6071 17.4642 20.8476 17.9533 20.2719 18.6251C19.6961 19.297 19.3291 20.1224 19.216 21H23V22H18.5C18.3674 22 18.2402 21.9473 18.1464 21.8536C18.0527 21.7598 18 21.6326 18 21.5V14H7V23.701C7 24.405 7.475 25 8.037 25H21V26H8.037C6.914 26 6 24.969 6 23.701V9.3C6 8.032 6.914 7 8.037 7H29.963C31.086 7 32 8.032 32 9.3V21H31.001L31 14ZM33 28C33 30.757 30.757 33 28 33C25.243 33 23 30.757 23 28C23 25.244 25.243 23 28 23C30.757 23 33 25.244 33 28ZM34 28C34 24.692 31.309 22 28 22C24.691 22 22 24.692 22 28C22 31.309 24.691 34 28 34C31.309 34 34 31.309 34 28ZM27.862 29.862L31.576 26.149L30.869 25.442L27.509 28.802L25.995 27.288L25.288 27.995L27.155 29.862C27.2488 29.9557 27.3759 30.0084 27.5085 30.0084C27.6411 30.0084 27.7682 29.9557 27.862 29.862ZM14 20H16V19H14V20ZM9 20H13V19H9V20Z" fill="white"/>
</g>
<defs>
<linearGradient id="paint0_linear_489_3031" x1="0" y1="40" x2="40" y2="0" gradientUnits="userSpaceOnUse">
<stop stop-color="#BD0816"/>
<stop offset="1" stop-color="#FF5252"/>
</linearGradient>
<clipPath id="clip0_489_3031">
<rect width="40" height="40" fill="white"/>
</clipPath>
</defs>
</svg>
