<svg width="48" height="48" viewBox="0 0 48 48" fill="none" xmlns="http://www.w3.org/2000/svg">
<path fill-rule="evenodd" clip-rule="evenodd" d="M28.371 32.87C28.501 32.741 28.672 32.67 28.854 32.67C28.944 32.6697 29.0342 32.6872 29.1174 32.7215C29.2006 32.7557 29.2762 32.8061 29.34 32.8696C29.4037 32.9332 29.4542 33.0087 29.4887 33.0918C29.5232 33.1749 29.541 33.264 29.541 33.354V33.356C29.5417 33.4463 29.5244 33.5358 29.4901 33.6193C29.4559 33.7028 29.4054 33.7787 29.3416 33.8426C29.2777 33.9064 29.2018 33.9569 29.1183 33.9911C29.0348 34.0254 28.9453 34.0427 28.855 34.042C28.719 34.0425 28.586 34.0024 28.4728 33.927C28.3596 33.8516 28.2715 33.7442 28.2196 33.6185C28.1677 33.4928 28.1544 33.3545 28.1813 33.2212C28.2083 33.0879 28.2743 32.9656 28.371 32.87ZM27.855 35.845V38.655H29.855V35.848C30.3535 35.6501 30.7808 35.3068 31.0815 34.8627C31.3822 34.4186 31.5423 33.8943 31.541 33.358C31.5427 33.0053 31.4743 32.6558 31.3397 32.3298C31.2051 32.0037 31.0071 31.7077 30.757 31.459C30.5083 31.2082 30.2123 31.0093 29.8862 30.8738C29.56 30.7384 29.2102 30.6691 28.857 30.67H28.853C28.1416 30.6716 27.4598 30.955 26.9569 31.4583C26.454 31.9615 26.1711 32.6436 26.17 33.355C26.17 34.483 26.87 35.447 27.855 35.845ZM35.718 40.465L21.988 40.459L21.991 29.351L35.724 29.358L35.718 40.465ZM25.488 24.833C25.482 23.8673 25.8459 22.9359 26.505 22.23C27.14 21.56 27.976 21.19 28.861 21.19H28.872C30.722 21.196 32.219 22.85 32.213 24.876V27.356L25.475 27.353L25.487 24.833H25.488ZM36.724 27.358H34.212L34.213 24.879C34.223 21.752 31.829 19.2 28.878 19.19H28.861C27.421 19.19 26.068 19.781 25.052 20.856C24.0427 21.931 23.4828 23.3514 23.487 24.826L23.475 27.352H20.991C20.726 27.3528 20.4721 27.4584 20.2848 27.6458C20.0974 27.8331 19.9918 28.087 19.991 28.352L19.987 41.459C19.987 41.7242 20.0924 41.9786 20.2799 42.1661C20.4674 42.3536 20.7218 42.459 20.987 42.459L36.718 42.465C37.269 42.465 37.718 42.017 37.718 41.465L37.724 28.358C37.7232 28.093 37.6176 27.8391 37.4302 27.6518C37.2429 27.4644 36.989 27.3588 36.724 27.358ZM15.764 11.47C15.572 11.4699 15.3879 11.3935 15.2522 11.2576C15.1165 11.1217 15.0404 10.9375 15.0405 10.7455C15.0406 10.5535 15.117 10.3694 15.2529 10.2337C15.3888 10.098 15.573 10.0219 15.765 10.022C15.957 10.0223 16.1411 10.0988 16.2767 10.2348C16.4122 10.3707 16.4883 10.555 16.488 10.747C16.4877 10.939 16.4112 11.1231 16.2752 11.2587C16.1393 11.3942 15.955 11.4703 15.763 11.47H15.764ZM15.764 8.023C15.0418 8.02379 14.3494 8.31104 13.8387 8.82172C13.328 9.3324 13.0408 10.0248 13.04 10.747C13.0411 11.4689 13.3283 12.1609 13.8387 12.6713C14.3491 13.1817 15.0411 13.4689 15.763 13.47C16.4849 13.4692 17.1771 13.1821 17.6876 12.6716C18.1981 12.1611 18.4852 11.4689 18.486 10.747C18.4855 10.0249 18.1984 9.33248 17.6879 8.82178C17.1774 8.31107 16.4851 8.02379 15.763 8.023H15.764ZM17.184 16.187C16.9814 16.2512 16.8045 16.3783 16.6789 16.5498C16.5534 16.7214 16.4859 16.9284 16.486 17.141V18.889C16.486 19.154 16.592 19.409 16.779 19.596L17.549 20.366L16.779 21.136C16.5916 21.3236 16.4863 21.5778 16.486 21.843V22.827C16.4861 23.0922 16.5914 23.3465 16.779 23.534L17.549 24.304L16.779 25.074C16.5919 25.2618 16.4866 25.5159 16.486 25.781V26.882L15.662 27.824L15.04 27.29V17.14C15.0401 16.9274 14.9726 16.7204 14.8471 16.5488C14.7215 16.3773 14.5446 16.2502 14.342 16.186C13.3993 15.8887 12.5765 15.2977 11.9935 14.4994C11.4106 13.7012 11.0982 12.7374 11.102 11.749C11.1033 10.5131 11.5948 9.32826 12.4686 8.45428C13.3424 7.5803 14.5271 7.08859 15.763 7.087C16.999 7.08859 18.1838 7.58027 19.0578 8.45422C19.9317 9.32817 20.4234 10.513 20.425 11.749C20.4288 12.7374 20.1164 13.7012 19.5335 14.4994C18.9505 15.2977 18.1277 15.8887 17.185 16.186L17.184 16.187ZM19.67 21.072C19.8575 20.8845 19.9628 20.6302 19.9628 20.365C19.9628 20.0998 19.8575 19.8455 19.67 19.658L18.486 18.475V17.829C19.6622 17.3079 20.6611 16.4555 21.3608 15.3759C22.0605 14.2964 22.4306 13.0364 22.426 11.75C22.4239 9.9836 21.7212 8.29018 20.4721 7.04124C19.2229 5.7923 17.5294 5.08985 15.763 5.088C13.9968 5.09012 12.3035 5.79268 11.0546 7.04159C9.80568 8.2905 9.10312 9.98378 9.101 11.75C9.09619 13.0366 9.46624 14.2968 10.1659 15.3765C10.8656 16.4562 11.8647 17.3088 13.041 17.83V27.75C13.041 28.042 13.168 28.32 13.389 28.51L15.111 29.986C15.311 30.158 15.5709 30.2441 15.8341 30.2253C16.0973 30.2066 16.3424 30.0846 16.516 29.886L18.239 27.916C18.3982 27.7338 18.486 27.5 18.486 27.258V26.195L19.67 25.011C19.8575 24.8235 19.9628 24.5692 19.9628 24.304C19.9628 24.0388 19.8575 23.7845 19.67 23.597L18.486 22.413V22.257L19.67 21.072ZM39.221 43.157C39.2207 43.3707 39.1357 43.5755 38.9846 43.7266C38.8335 43.8777 38.6287 43.9627 38.415 43.963H8.806C8.59214 43.9627 8.38714 43.8776 8.23601 43.7263C8.08489 43.575 8 43.3699 8 43.156V4.806C8 4.361 8.361 4 8.806 4H38.416C38.859 4 39.221 4.361 39.221 4.806V43.156V43.157ZM38.415 2H8.806C8.06213 2.00106 7.34903 2.29703 6.82303 2.82303C6.29703 3.34903 6.00106 4.06213 6 4.806V43.156C6.00106 43.8999 6.29703 44.613 6.82303 45.139C7.34903 45.665 8.06213 45.9609 8.806 45.962H38.416C39.1597 45.9607 39.8725 45.6646 40.3983 45.1386C40.9241 44.6126 41.2199 43.8997 41.221 43.156V4.806C41.2199 4.06213 40.924 3.34903 40.398 2.82303C39.872 2.29703 39.1589 2.00106 38.415 2Z" fill="#BF0816"/>
</svg>
