<svg width="48" height="48" viewBox="0 0 48 48" fill="none" xmlns="http://www.w3.org/2000/svg">
<path fill-rule="evenodd" clip-rule="evenodd" d="M4.131 22.96H9.986V24.96H4.131C3.56599 24.9595 3.02427 24.7348 2.62474 24.3353C2.22522 23.9357 2.00053 23.394 2 22.829V4.131C2 2.956 2.956 2 4.131 2H22.829C24.004 2 24.96 2.956 24.96 4.131V10.86H22.96V4.131C22.9601 4.11376 22.9568 4.09667 22.9503 4.08071C22.9438 4.06476 22.9341 4.05026 22.9219 4.03807C22.9097 4.02588 22.8952 4.01624 22.8793 4.0097C22.8633 4.00316 22.8462 3.99987 22.829 4H4.131C4.09626 4 4.06294 4.0138 4.03837 4.03837C4.0138 4.06294 4 4.09626 4 4.131V22.829C4 22.901 4.059 22.96 4.131 22.96ZM13.737 33.44H21.279V35.44H13.737C13.1723 35.4392 12.631 35.2145 12.2317 34.8153C11.8325 34.416 11.6078 33.8747 11.607 33.31V14.61C11.607 13.436 12.563 12.48 13.737 12.48H32.436C33.61 12.48 34.567 13.436 34.567 14.61V21.34H32.567V14.61C32.567 14.5928 32.5636 14.5759 32.557 14.56C32.5504 14.5442 32.5407 14.5298 32.5286 14.5177C32.5164 14.5056 32.5019 14.4961 32.4861 14.4896C32.4702 14.4831 32.4532 14.4799 32.436 14.48H13.737C13.7199 14.48 13.703 14.4834 13.6873 14.4899C13.6715 14.4964 13.6571 14.506 13.6451 14.5181C13.633 14.5301 13.6234 14.5445 13.6169 14.5603C13.6104 14.576 13.607 14.5929 13.607 14.61V33.31C13.607 33.382 13.665 33.44 13.737 33.44ZM43.85 43.92L24.96 43.85V25.091C24.96 25.019 25.019 24.96 25.091 24.96H43.789C43.861 24.96 43.92 25.019 43.92 25.091L43.85 43.92ZM43.789 22.96H25.091C24.526 22.9605 23.9843 23.1852 23.5847 23.5847C23.1852 23.9843 22.9605 24.526 22.96 25.091V43.85C22.96 44.991 23.889 45.92 25.03 45.92H43.85C44.991 45.92 45.92 44.991 45.92 43.85V25.091C45.9195 24.526 45.6948 23.9843 45.2953 23.5847C44.8957 23.1852 44.354 22.9605 43.789 22.96Z" fill="#D45B07"/>
</svg>
