<svg width="48" height="48" viewBox="0 0 48 48" fill="none" xmlns="http://www.w3.org/2000/svg">
<path fill-rule="evenodd" clip-rule="evenodd" d="M44.0829 32.581C43.388 32.6347 42.6939 32.6984 42.0009 32.772L41.8329 32.79C40.0679 32.972 38.0699 33.177 37.1189 33.047C36.5249 32.962 35.4309 32.487 34.2709 31.984C32.3049 31.132 29.8569 30.07 27.6439 29.9C24.5979 29.666 19.3339 30.24 15.9409 31.831C13.9789 31.743 12.1589 31.215 10.7449 30.343C10.7393 30.1267 10.7353 29.9104 10.7329 29.694C10.7329 25.558 12.6709 21.679 16.0529 19.044C18.3792 17.6932 21.0228 16.985 23.7129 16.992C29.8329 16.992 35.2659 20.609 37.3849 25.934H36.5719C35.7579 25.934 35.0759 26.51 34.9089 27.274L34.4969 27.118C32.4669 26.335 29.6839 25.264 26.4659 25.455C21.7609 25.731 19.4459 26.015 17.6229 26.535L18.1719 28.459C19.8399 27.982 22.0399 27.719 26.5819 27.451C29.3669 27.293 31.9199 28.269 33.7769 28.984C34.1719 29.137 34.5289 29.27 34.8669 29.391V29.596C34.8669 30.535 35.6329 31.3 36.5719 31.3H40.2189C41.1559 31.3 41.9189 30.538 41.9229 29.602L42.2769 29.57C42.8088 29.5221 43.3404 29.4718 43.8719 29.419L44.0819 29.398L44.0829 32.581ZM9.79886 34.249C7.14886 34.612 5.05686 34.288 4.19086 33.753C4.71586 33.382 5.90086 32.863 6.73486 32.499C7.46389 32.1841 8.18416 31.8493 8.89486 31.495C10.0489 32.374 11.4779 33.033 13.0599 33.426C12.1449 33.794 11.0119 34.084 9.79886 34.249ZM36.8679 29.3H39.9229V27.934H36.8679V29.3ZM26.5859 13C34.9539 13 41.9819 19.295 43.0159 27.492C42.7289 27.52 42.4249 27.549 42.1039 27.578L41.9189 27.594C41.9074 27.1504 41.7234 26.7288 41.4059 26.4188C41.0884 26.1088 40.6626 25.9349 40.2189 25.934H39.5079C37.3069 19.457 30.9319 14.992 23.7129 14.992C21.0389 14.992 18.4229 15.604 16.0719 16.767C16.0889 16.753 16.1019 16.738 16.1179 16.725C19.0753 14.317 22.7721 13.0015 26.5859 13ZM45.5259 27.794C45.3794 27.6657 45.211 27.5648 45.0289 27.496C43.9829 18.185 36.0489 11 26.5859 11C22.3116 11.0019 18.1685 12.4763 14.8539 15.175C12.7099 16.9133 10.9821 19.1093 9.7968 21.602C8.61154 24.0946 7.99893 26.8209 8.00386 29.581C8.00386 29.622 8.00786 29.663 8.00786 29.704C7.34086 30.039 6.63586 30.359 5.93486 30.666C3.79886 31.6 2.25486 32.274 2.02486 33.492C1.96786 33.801 1.95786 34.406 2.54486 34.994C3.58286 36.031 5.57286 36.403 7.59486 36.403C8.43686 36.403 9.28286 36.339 10.0689 36.231C11.4079 36.049 13.9079 35.558 15.6049 34.316C18.2829 32.375 24.3379 31.649 27.4909 31.894C29.3699 32.039 31.6459 33.026 33.4759 33.819C34.8719 34.426 35.9759 34.904 36.8419 35.027C38.0319 35.19 39.9779 34.99 42.0369 34.779L42.2099 34.762C42.7399 34.7049 43.2706 34.6546 43.8019 34.611C44.0169 34.59 44.2299 34.575 44.5139 34.555C45.3939 34.493 46.0829 33.755 46.0829 32.875V29.046C46.0829 28.568 45.8799 28.112 45.5259 27.794Z" fill="#BF0816"/>
</svg>
