<?xml version="1.0" encoding="UTF-8"?>
<svg xmlns="http://www.w3.org/2000/svg" xmlns:xlink="http://www.w3.org/1999/xlink" width="24px" height="24px" viewBox="0 0 25 24" version="1.1">
<defs>
<clipPath id="clip1">
  <path d="M 0.00390625 0 L 25 0 L 25 23.988281 L 0.00390625 23.988281 Z M 0.00390625 0 "/>
</clipPath>
</defs>
<g id="surface1">
<g clip-path="url(#clip1)" clip-rule="nonzero">
<path style=" stroke:none;fill-rule:evenodd;fill:rgb(16.078431%,70.980392%,90.980392%);fill-opacity:1;" d="M 8.347656 12.433594 C 8.238281 12.777344 7.996094 13.085938 7.636719 13.28125 L 2.34375 16.207031 C 1.597656 16.617188 0.644531 16.371094 0.214844 15.660156 C -0.21875 14.945312 0.0351562 14.039062 0.785156 13.625 L 3.742188 11.996094 L 0.785156 10.359375 C 0.0351562 9.949219 -0.21875 9.039062 0.214844 8.328125 C 0.644531 7.613281 1.597656 7.371094 2.34375 7.78125 L 7.636719 10.699219 C 8.007812 10.90625 8.257812 11.230469 8.363281 11.597656 C 8.398438 11.710938 8.414062 11.828125 8.417969 11.949219 C 8.421875 12.109375 8.402344 12.273438 8.347656 12.433594 Z M 9.785156 15.167969 C 10.589844 15.226562 11.226562 15.871094 11.226562 16.652344 L 11.226562 22.496094 C 11.226562 23.320312 10.527344 23.988281 9.667969 23.988281 C 8.804688 23.988281 8.109375 23.320312 8.109375 22.496094 L 8.109375 19.226562 L 5.140625 20.863281 C 4.398438 21.277344 3.445312 21.03125 3.011719 20.320312 C 2.582031 19.609375 2.835938 18.695312 3.582031 18.28125 L 8.878906 15.363281 C 9.164062 15.207031 9.480469 15.144531 9.785156 15.167969 Z M 15.210938 8.820312 C 14.402344 8.761719 13.765625 8.117188 13.765625 7.332031 L 13.765625 1.488281 C 13.765625 0.667969 14.460938 0 15.328125 0 C 16.1875 0 16.886719 0.667969 16.886719 1.488281 L 16.886719 4.757812 L 19.851562 3.121094 C 20.597656 2.710938 21.550781 2.953125 21.980469 3.664062 C 22.410156 4.378906 22.15625 5.289062 21.410156 5.703125 L 16.113281 8.625 C 15.828125 8.78125 15.511719 8.84375 15.210938 8.820312 Z M 3.582031 5.703125 C 2.835938 5.289062 2.582031 4.378906 3.011719 3.664062 C 3.445312 2.953125 4.398438 2.710938 5.140625 3.121094 L 8.109375 4.757812 L 8.109375 1.488281 C 8.109375 0.667969 8.804688 0 9.667969 0 C 10.527344 0 11.226562 0.667969 11.226562 1.488281 L 11.226562 7.332031 C 11.226562 8.117188 10.589844 8.761719 9.785156 8.820312 C 9.480469 8.84375 9.164062 8.78125 8.878906 8.625 Z M 13.097656 14.667969 C 13.035156 14.730469 12.910156 14.78125 12.820312 14.78125 L 12.171875 14.78125 C 12.082031 14.78125 11.960938 14.730469 11.894531 14.667969 L 9.695312 12.566406 C 9.632812 12.507812 9.582031 12.386719 9.582031 12.304688 L 9.582031 11.683594 C 9.582031 11.597656 9.632812 11.480469 9.695312 11.417969 L 11.894531 9.316406 C 11.960938 9.257812 12.082031 9.207031 12.171875 9.207031 L 12.820312 9.207031 C 12.910156 9.207031 13.035156 9.257812 13.097656 9.316406 L 15.296875 11.417969 C 15.359375 11.480469 15.410156 11.597656 15.410156 11.683594 L 15.410156 12.304688 C 15.410156 12.386719 15.359375 12.507812 15.296875 12.566406 Z M 13.539062 11.984375 C 13.539062 11.898438 13.484375 11.78125 13.421875 11.714844 L 12.785156 11.109375 C 12.722656 11.050781 12.597656 11 12.507812 11 L 12.484375 11 C 12.394531 11 12.269531 11.050781 12.210938 11.109375 L 11.570312 11.714844 C 11.507812 11.78125 11.460938 11.898438 11.460938 11.984375 L 11.460938 12.007812 C 11.460938 12.089844 11.507812 12.207031 11.570312 12.269531 L 12.210938 12.875 C 12.273438 12.9375 12.394531 12.984375 12.484375 12.984375 L 12.507812 12.984375 C 12.597656 12.984375 12.722656 12.9375 12.785156 12.875 L 13.421875 12.269531 C 13.484375 12.207031 13.539062 12.089844 13.539062 12.007812 Z M 21.410156 18.28125 C 22.15625 18.695312 22.410156 19.609375 21.980469 20.320312 C 21.550781 21.03125 20.597656 21.277344 19.851562 20.863281 L 16.886719 19.226562 L 16.886719 22.496094 C 16.886719 23.320312 16.1875 23.988281 15.328125 23.988281 C 14.460938 23.988281 13.765625 23.320312 13.765625 22.496094 L 13.765625 16.652344 C 13.765625 15.871094 14.402344 15.226562 15.210938 15.167969 C 15.511719 15.144531 15.828125 15.207031 16.113281 15.363281 Z M 21.25 11.996094 L 24.210938 13.625 C 24.957031 14.039062 25.210938 14.945312 24.78125 15.660156 C 24.351562 16.371094 23.394531 16.617188 22.652344 16.207031 L 17.355469 13.28125 C 17 13.085938 16.757812 12.777344 16.648438 12.433594 C 16.59375 12.273438 16.570312 12.109375 16.578125 11.949219 C 16.578125 11.828125 16.597656 11.710938 16.632812 11.597656 C 16.738281 11.230469 16.988281 10.90625 17.355469 10.699219 L 22.652344 7.78125 C 23.394531 7.371094 24.351562 7.613281 24.78125 8.328125 C 25.210938 9.039062 24.957031 9.949219 24.210938 10.359375 Z M 21.25 11.996094 "/>
</g>
</g>
</svg>
