<svg width="24" height="24" viewBox="0 0 24 24" fill="none" xmlns="http://www.w3.org/2000/svg">
<path d="M7.44681 16.6207C5.98449 17.0195 5.13087 18.5309 5.52958 19.9793C5.92845 21.4277 7.43275 22.3023 8.89508 21.9034C10.3574 21.5046 11.211 19.9932 10.8123 18.5448C10.6444 17.9291 10.2805 17.4253 9.80478 17.0684L12.5336 11.7157C12.8975 11.8137 13.2893 11.8207 13.6741 11.7087C14.017 11.6177 14.3248 11.4428 14.5698 11.2189L17.5435 13.339C17.4105 13.6749 17.3896 14.0597 17.4876 14.4305C17.7464 15.3751 18.726 15.9349 19.6705 15.676C20.6151 15.4171 21.1749 14.4376 20.916 13.493C20.6571 12.5485 19.6776 11.9887 18.733 12.2475C18.4881 12.3175 18.2573 12.4364 18.0753 12.5973L15.1085 10.4703C15.3044 10.0294 15.3535 9.51867 15.2135 9.01485C15.1715 8.86096 15.1085 8.71396 15.0385 8.57397L17.6484 6.40488C18.2222 6.86668 18.9918 7.05557 19.7545 6.85263C21.007 6.50971 21.7557 5.20832 21.4059 3.95583C21.0701 2.70379 19.7686 1.95497 18.5092 2.29792C17.2497 2.64083 16.5081 3.94222 16.8579 5.19471C16.9069 5.37657 16.9767 5.54451 17.0608 5.69853L14.4508 7.88152C13.919 7.47565 13.2124 7.30082 12.5197 7.4897C12.1138 7.60172 11.764 7.81857 11.4981 8.10542L8.46142 6.27924C8.72029 5.66352 8.77622 4.97082 8.58734 4.27808C8.13959 2.63377 6.43231 1.66125 4.78084 2.109C3.12964 2.55674 2.17102 4.27107 2.61877 5.91549C3.06652 7.5598 4.7738 8.53232 6.42526 8.08457C7.06894 7.9096 7.60072 7.54574 7.99254 7.06299L11.0362 8.88917C10.8962 9.29504 10.8753 9.74279 10.9942 10.1767C11.1201 10.6315 11.386 11.0233 11.7219 11.2962L8.99302 16.6489C8.49636 16.5019 7.96454 16.4807 7.44681 16.6207Z" fill="#00264F"/>
</svg>
