<svg width="28" height="28" viewBox="0 0 28 28" fill="none" xmlns="http://www.w3.org/2000/svg">
<path d="M14.0003 9.33333V14L16.3336 16.3333M3.55859 12.8334C3.82003 10.2668 5.01723 7.88629 6.92178 6.14604C8.82633 4.40579 11.3049 3.42761 13.8846 3.39815C16.4643 3.36868 18.9646 4.28999 20.9084 5.98629C22.8522 7.68259 24.1035 10.0351 24.4235 12.5951C24.7435 15.1551 24.1098 17.7432 22.6433 19.8658C21.1769 21.9884 18.9803 23.4968 16.4728 24.1032C13.9652 24.7097 11.3221 24.3717 9.04776 23.1538C6.77344 21.9359 5.0271 19.9234 4.14193 17.5001M3.55859 23.3334V17.5001H9.39193" stroke="#00264F" stroke-width="2" stroke-linecap="round" stroke-linejoin="round"/>
</svg>
