<svg width="28" height="28" viewBox="0 0 28 28" fill="none" xmlns="http://www.w3.org/2000/svg">
<path d="M14.0004 17.2657L10.6004 14L14.0004 10.7343V4L4.29031 13.3267C4.10442 13.5053 4 13.7475 4 14C4 14.2525 4.10442 14.4947 4.29031 14.6733L14.0004 24C14.0004 24 15.4877 23.0476 15.4877 20.6667C15.4107 19.4032 14.8859 18.203 14.0004 17.2657Z" fill="#2684FF"/>
<path d="M11.1308 13.3652L11.1957 13.4276L13.9998 10.7343V4L8.74414 9.04762C9.13931 10.6602 9.9614 12.1475 11.1308 13.3652Z" fill="#1D78F2"/>
<path d="M11.8483 12.7071L11.8979 12.7548L14.0009 10.7348V4L9.60449 8.2219C9.88017 9.89544 10.6602 11.4547 11.8483 12.7071Z" fill="#126AE5"/>
<path d="M13.9997 10.7343V4L10.5293 7.33333C10.6053 9.10248 11.3389 10.7869 12.5971 12.081L13.9997 10.7343Z" fill="#0B60DA"/>
<path d="M11.5215 7.33333C11.5215 9.59333 13.2106 11.3195 13.2988 11.4076L14.0003 10.7343V4L11.6097 6.29619C11.5504 6.63896 11.5209 6.98587 11.5215 7.33333Z" fill="#0154CE"/>
<path d="M14 10.7343L17.3995 14L14 17.2657V24L23.7096 14.6733C23.8955 14.4947 23.9999 14.2525 23.9999 14C23.9999 13.7475 23.8955 13.5053 23.7096 13.3267L14 4C14 4 12.5127 4.95238 12.5127 7.33333C12.5896 8.59685 13.1145 9.79701 14 10.7343Z" fill="#2482FD"/>
<path d="M16.8685 14.6346L16.8036 14.5723L14 17.2656V23.9999L19.2551 18.9523C18.8599 17.3397 18.0379 15.8524 16.8685 14.6346Z" fill="#1D78F2"/>
<path d="M16.1511 15.2927L16.1016 15.2451L13.999 17.2651V23.9999L18.3945 19.778C18.1188 18.1045 17.3389 16.5453 16.1511 15.2927Z" fill="#126AE5"/>
<path d="M14 17.2656V23.9999L17.4704 20.6666C17.3943 18.8973 16.6605 17.2129 15.402 15.9189L14 17.2656Z" fill="#0B60DA"/>
<path d="M16.4788 20.6666C16.4788 18.4066 14.7898 16.6804 14.701 16.5923L14 17.2656V23.9999L16.3906 21.7037C16.4496 21.3609 16.4792 21.014 16.4788 20.6666Z" fill="#0154CE"/>
<path d="M14 17.2657L10.6 14H5.07617V15.4286L14 24C14 24 15.4873 23.0476 15.4873 20.6667C15.4103 19.4032 14.8855 18.203 14 17.2657Z" fill="#2684FF"/>
</svg>
