<?xml version="1.0" encoding="UTF-8"?>
<svg width="576px" height="237px" viewBox="0 0 576 237" version="1.1" xmlns="http://www.w3.org/2000/svg" xmlns:xlink="http://www.w3.org/1999/xlink">
    <title>Group</title>
    <g id="Page-1" stroke="none" stroke-width="1" fill="none" fill-rule="evenodd">
        <g id="Desktop" transform="translate(-226.000000, -138.000000)">
            <g id="Group" transform="translate(226.000000, 138.000000)">
                <rect id="Rectangle" fill="#E8F0F1" opacity="0.300000012" x="0" y="0" width="570.566038" height="60" rx="11"></rect>
                <rect id="Rectangle-Copy-2" fill="#E8F0F1" opacity="0.300000012" x="5" y="109" width="570.566038" height="36" rx="11"></rect>
                <rect id="Rectangle-Copy-6" fill="#E8F0F1" opacity="0.300000012" x="5" y="154" width="570.566038" height="36" rx="11"></rect>
                <rect id="Rectangle-Copy-10" fill="#E8F0F1" opacity="0.300000012" x="5" y="201" width="570.566038" height="36" rx="11"></rect>
                <rect id="Rectangle" fill="#426669" opacity="0.200000003" x="23" y="26" width="136" height="8" rx="4"></rect>
                <rect id="Rectangle-Copy-3" fill="#426669" opacity="0.200000003" x="17" y="123" width="77" height="8" rx="4"></rect>
                <rect id="Rectangle-Copy-7" fill="#426669" opacity="0.200000003" x="17" y="168" width="77" height="8" rx="4"></rect>
                <rect id="Rectangle-Copy-11" fill="#426669" opacity="0.200000003" x="17" y="215" width="77" height="8" rx="4"></rect>
                <rect id="Rectangle-Copy-4" fill="#426669" opacity="0.200000003" x="118" y="123" width="39" height="8" rx="4"></rect>
                <rect id="Rectangle-Copy-8" fill="#426669" opacity="0.200000003" x="118" y="168" width="39" height="8" rx="4"></rect>
                <rect id="Rectangle-Copy-12" fill="#426669" opacity="0.200000003" x="118" y="215" width="39" height="8" rx="4"></rect>
                <rect id="Rectangle-Copy-5" fill="#426669" opacity="0.200000003" x="369" y="123" width="188" height="8" rx="4"></rect>
                <rect id="Rectangle-Copy-9" fill="#426669" opacity="0.200000003" x="369" y="168" width="188" height="8" rx="4"></rect>
                <rect id="Rectangle-Copy-13" fill="#426669" opacity="0.200000003" x="369" y="215" width="188" height="8" rx="4"></rect>
                <rect id="Rectangle-Copy" fill="#426669" opacity="0.200000003" x="490" y="26" width="50" height="8" rx="4"></rect>
            </g>
        </g>
    </g>
</svg>