<svg width="28" height="28" viewBox="0 0 28 28" fill="none" xmlns="http://www.w3.org/2000/svg">
<path d="M18.8721 6.05128C18.8721 4.91846 17.9536 4 16.8208 4C15.688 4 14.7695 4.91846 14.7695 6.05128C14.7695 6.69436 14.7695 11.0467 14.7695 11.6923C14.7695 12.8251 15.688 13.7436 16.8208 13.7436C17.9536 13.7436 18.8721 12.8251 18.8721 11.6923C18.8721 11.0467 18.8721 6.69436 18.8721 6.05128Z" fill="#33D375"/>
<path d="M24 11.6922C24 12.825 23.0816 13.7434 21.9487 13.7434C21.3359 13.7434 19.8975 13.7434 19.8975 13.7434C19.8975 13.7434 19.8975 12.2122 19.8975 11.6922C19.8975 10.5593 20.8159 9.64087 21.9487 9.64087C23.0816 9.64087 24 10.5593 24 11.6922Z" fill="#33D375"/>
<path d="M6.05128 9.12817C4.91846 9.12817 4 10.0466 4 11.1795C4 12.3123 4.91846 13.2307 6.05128 13.2307C6.69436 13.2307 11.0467 13.2307 11.6923 13.2307C12.8251 13.2307 13.7436 12.3123 13.7436 11.1795C13.7436 10.0466 12.8251 9.12817 11.6923 9.12817C11.0467 9.12817 6.69436 9.12817 6.05128 9.12817Z" fill="#40C4FF"/>
<path d="M11.6929 4C12.8257 4 13.7442 4.91846 13.7442 6.05128C13.7442 6.6641 13.7442 8.10256 13.7442 8.10256C13.7442 8.10256 12.2129 8.10256 11.6929 8.10256C10.5601 8.10256 9.6416 7.1841 9.6416 6.05128C9.6416 4.91846 10.5601 4 11.6929 4Z" fill="#40C4FF"/>
<path d="M9.12793 21.9515C9.12793 23.0828 10.0464 23.9997 11.1792 23.9997C12.312 23.9997 13.2305 23.0828 13.2305 21.9515C13.2305 21.3095 13.2305 16.9633 13.2305 16.3187C13.2305 15.1874 12.312 14.2705 11.1792 14.2705C10.0464 14.2705 9.12793 15.1874 9.12793 16.3187C9.12793 16.9633 9.12793 21.3095 9.12793 21.9515Z" fill="#E91E63"/>
<path d="M4 16.3187C4 15.1874 4.91846 14.2705 6.05128 14.2705C6.6641 14.2705 8.10256 14.2705 8.10256 14.2705C8.10256 14.2705 8.10256 15.7992 8.10256 16.3187C8.10256 17.45 7.1841 18.3669 6.05128 18.3669C4.91846 18.3669 4 17.45 4 16.3187Z" fill="#E91E63"/>
<path d="M21.9482 18.8721C23.081 18.8721 23.9994 17.9536 23.9994 16.8208C23.9994 15.688 23.081 14.7695 21.9482 14.7695C21.3051 14.7695 16.9528 14.7695 16.3071 14.7695C15.1743 14.7695 14.2559 15.688 14.2559 16.8208C14.2559 17.9536 15.1743 18.8721 16.3071 18.8721C16.9523 18.8721 21.3051 18.8721 21.9482 18.8721Z" fill="#FFC107"/>
<path d="M16.3071 24C15.1743 24 14.2559 23.0816 14.2559 21.9487C14.2559 21.3359 14.2559 19.8975 14.2559 19.8975C14.2559 19.8975 15.7871 19.8975 16.3071 19.8975C17.44 19.8975 18.3584 20.8159 18.3584 21.9487C18.3584 23.0816 17.44 24 16.3071 24Z" fill="#FFC107"/>
</svg>
